<svg width="20" height="20" viewBox="0 0 20 20" fill="none" xmlns="http://www.w3.org/2000/svg">
<path d="M10 2C10.2519 2 10.4634 2.08549 10.6338 2.25586C10.8039 2.42611 10.8886 2.6371 10.8887 2.88867V9.11133H17.1113C17.3629 9.11138 17.5739 9.19614 17.7441 9.36621C17.9145 9.53658 18 9.74815 18 10C18 10.2519 17.9145 10.4634 17.7441 10.6338C17.5739 10.8039 17.3629 10.8886 17.1113 10.8887H10.8887V17.1113C10.8886 17.3629 10.8039 17.5739 10.6338 17.7441C10.4634 17.9145 10.2519 18 10 18C9.74815 18 9.53658 17.9145 9.36621 17.7441C9.19614 17.5739 9.11138 17.3629 9.11133 17.1113V10.8887H2.88867C2.6371 10.8886 2.42611 10.8039 2.25586 10.6338C2.08549 10.4634 2 10.2519 2 10C2 9.74815 2.08549 9.53658 2.25586 9.36621C2.42611 9.19614 2.6371 9.11138 2.88867 9.11133H9.11133V2.88867C9.11138 2.6371 9.19614 2.42611 9.36621 2.25586C9.53658 2.08549 9.74815 2 10 2Z" fill="#1C1B1F"/>
</svg>
