<svg width="20" height="20" viewBox="0 0 20 20" fill="none" xmlns="http://www.w3.org/2000/svg">
<path d="M9.27246 2C13.2889 2 16.5457 5.25606 16.5459 9.27246C16.5459 11.0186 15.929 12.6204 14.9033 13.874L17.7871 16.7588C18.0709 17.0428 18.071 17.5032 17.7871 17.7871C17.5032 18.071 17.0428 18.0709 16.7588 17.7871L13.875 14.9033C12.6213 15.9293 11.0188 16.5459 9.27246 16.5459C5.25611 16.5457 2 13.2888 2 9.27246C2.00019 5.25622 5.25623 2.00025 9.27246 2ZM9.27246 3.45508C6.05954 3.45532 3.45526 6.05953 3.45508 9.27246C3.45508 12.4856 6.05943 15.0906 9.27246 15.0908C12.4857 15.0908 15.0908 12.4857 15.0908 9.27246C15.0906 6.05938 12.4856 3.45508 9.27246 3.45508Z" fill="black"/>
</svg>
