<svg width="20" height="20" viewBox="0 0 20 20" fill="none" xmlns="http://www.w3.org/2000/svg">
<path d="M10.75 9.25H16.4583C16.2917 7.73611 15.6771 6.44792 14.6146 5.38542C13.5521 4.32292 12.2639 3.70833 10.75 3.54167V9.25ZM9.25 16.4583V3.54167C7.61111 3.73611 6.24306 4.44444 5.14583 5.66667C4.04861 6.88889 3.5 8.32986 3.5 9.98958C3.5 11.6493 4.04861 13.0938 5.14583 14.3229C6.24306 15.5521 7.61111 16.2639 9.25 16.4583ZM10.75 16.4583C12.25 16.2778 13.5347 15.6528 14.6042 14.5833C15.6736 13.5139 16.2917 12.2361 16.4583 10.75H10.75V16.4583ZM10.0096 18C8.90486 18 7.86667 17.7917 6.895 17.375C5.92333 16.9583 5.07292 16.3854 4.34375 15.6562C3.61458 14.9271 3.04167 14.0767 2.625 13.105C2.20833 12.1333 2 11.0951 2 9.99042C2 8.88569 2.20833 7.84722 2.625 6.875C3.04167 5.90278 3.61458 5.05556 4.34375 4.33333C5.07292 3.61111 5.92333 3.04167 6.895 2.625C7.86667 2.20833 8.90486 2 10.0096 2C11.1143 2 12.1495 2.21 13.1152 2.63C14.0808 3.05 14.9265 3.62333 15.6525 4.35C16.3783 5.07667 16.951 5.92333 17.3706 6.89C17.7902 7.85667 18 8.89333 18 10C18 11.0933 17.7902 12.1267 17.3706 13.1C16.951 14.0733 16.3817 14.9233 15.6625 15.65C14.9432 16.3767 14.0974 16.95 13.1252 17.37C12.1528 17.79 11.1143 18 10.0096 18Z" fill="black"/>
</svg>
