<svg width="20" height="20" viewBox="0 0 20 20" fill="none" xmlns="http://www.w3.org/2000/svg">
<path d="M9.99563 13.5C10.2069 13.5 10.3854 13.4285 10.5312 13.2856C10.6771 13.1427 10.75 12.9656 10.75 12.7544C10.75 12.5431 10.6785 12.3646 10.5356 12.2188C10.3927 12.0729 10.2156 12 10.0044 12C9.79313 12 9.61458 12.0715 9.46875 12.2144C9.32292 12.3573 9.25 12.5344 9.25 12.7456C9.25 12.9569 9.32146 13.1354 9.46438 13.2812C9.60729 13.4271 9.78438 13.5 9.99563 13.5ZM9.99563 10.75C10.2069 10.75 10.3854 10.6785 10.5312 10.5356C10.6771 10.3927 10.75 10.2156 10.75 10.0044C10.75 9.79313 10.6785 9.61458 10.5356 9.46875C10.3927 9.32292 10.2156 9.25 10.0044 9.25C9.79313 9.25 9.61458 9.32146 9.46875 9.46438C9.32292 9.60729 9.25 9.78438 9.25 9.99563C9.25 10.2069 9.32146 10.3854 9.46438 10.5312C9.60729 10.6771 9.78438 10.75 9.99563 10.75ZM9.99563 8C10.2069 8 10.3854 7.92854 10.5312 7.78563C10.6771 7.64271 10.75 7.46563 10.75 7.25438C10.75 7.04313 10.6785 6.86458 10.5356 6.71875C10.3927 6.57292 10.2156 6.5 10.0044 6.5C9.79313 6.5 9.61458 6.57146 9.46875 6.71437C9.32292 6.85729 9.25 7.03437 9.25 7.24562C9.25 7.45687 9.32146 7.63542 9.46438 7.78125C9.60729 7.92708 9.78438 8 9.99563 8ZM16.5 16H3.5C3.0875 16 2.73438 15.8531 2.44063 15.5594C2.14688 15.2656 2 14.9125 2 14.5V11.5C2.4125 11.5 2.76563 11.3527 3.05938 11.0581C3.35313 10.7635 3.5 10.4094 3.5 9.99563C3.5 9.58188 3.35313 9.22812 3.05938 8.93437C2.76563 8.64062 2.4125 8.49375 2 8.49375V5.49375C2 5.08125 2.14688 4.72917 2.44063 4.4375C2.73438 4.14583 3.0875 4 3.5 4H16.5C16.9125 4 17.2656 4.14688 17.5594 4.44063C17.8531 4.73438 18 5.0875 18 5.5V8.5C17.5875 8.5 17.2344 8.64729 16.9406 8.94188C16.6469 9.23646 16.5 9.59062 16.5 10.0044C16.5 10.4181 16.6469 10.7719 16.9406 11.0656C17.2344 11.3594 17.5875 11.5062 18 11.5062V14.5063C18 14.9188 17.8531 15.2708 17.5594 15.5625C17.2656 15.8542 16.9125 16 16.5 16ZM16.5 14.5V12.6042C16.0556 12.3403 15.6944 11.9792 15.4167 11.5208C15.1389 11.0625 15 10.5556 15 10C15 9.44444 15.1389 8.9375 15.4167 8.47917C15.6944 8.02083 16.0556 7.65972 16.5 7.39583V5.5H3.5V7.39583C3.94444 7.65972 4.30556 8.02083 4.58333 8.47917C4.86111 8.9375 5 9.44444 5 10C5 10.5556 4.86111 11.0625 4.58333 11.5208C4.30556 11.9792 3.94444 12.3403 3.5 12.6042V14.5H16.5Z" fill="black"/>
</svg>
