<svg width="20" height="20" viewBox="0 0 20 20" fill="none" xmlns="http://www.w3.org/2000/svg">
<path d="M14.8 11.6H5.2V10H14.8V11.6ZM14.8 9.2H5.2V7.6H14.8V9.2ZM14.8 6.8H5.2V5.2H14.8V6.8ZM18 18V3.6C18 3.16 17.8432 2.78347 17.5296 2.4704C17.216 2.15733 16.8395 2.00053 16.4 2H3.6C3.16 2 2.7832 2.1568 2.4696 2.4704C2.156 2.784 1.99947 3.16053 2 3.6V13.2C2 13.64 2.15653 14.0168 2.4696 14.3304C2.78267 14.644 3.15947 14.8005 3.6 14.8H14.8L18 18ZM15.48 13.2H3.6V3.6H16.4V14.1L15.48 13.2Z" fill="black"/>
</svg>
